<?xml version="1.0" standalone="no"?><!DOCTYPE svg PUBLIC "-//W3C//DTD SVG 1.1//EN" "http://www.w3.org/Graphics/SVG/1.1/DTD/svg11.dtd"><svg viewBox="0 0 1024 1024" version="1.1" xmlns="http://www.w3.org/2000/svg" xmlns:xlink="http://www.w3.org/1999/xlink" width="1000" height="1000"><path d="M0 511.891785A511.891785 511.891785 0 1 0 511.891785 0 511.853513 511.853513 0 0 0 0 511.891785z" fill="#FFD96B"></path><path d="M873.966718 150.084758L150.084758 874.100671A511.910921 511.910921 0 0 0 873.966718 150.084758z" fill="#FDC223"></path><path d="M139.789514 511.891785a372.197952 372.197952 0 1 0 744.395904 0.133953v-0.133953a372.197952 372.197952 0 1 0-744.395904 0z" fill="#F9AB10"></path><path d="M767.053096 241.555514a371.719549 371.719549 0 0 0-525.497582 525.497582c0-0.191361 525.497582-525.497582 525.497582-525.497582z" fill="#F9B721"></path><path d="M479.953565 617.044883h-91.604709v-54.65282h91.604709v-29.546203h-91.604709v-54.65282h64.412252l-76.831608-155.844736h76.02789l49.371245 105.248778a199.015872 199.015872 0 0 1 13.395299 34.846913 224.141625 224.141625 0 0 1 13.395299-34.846913l50.423733-105.248778h76.02789l-77.750143 155.883008h65.46474v54.614548h-92.925103v29.565339h92.925103v54.633684h-92.925103v115.639703h-69.291968z" fill="#D3830D"></path><path d="M581.20289 469.256462l-147.84583 147.845829h46.462552v115.639703h69.425921v-115.639703h92.925103v-54.65282h-92.925103v-29.565339h92.925103v-54.65282h-65.46474z" fill="#BF790A"></path></svg>