<?xml version="1.0" encoding="UTF-8" ?>
<!DOCTYPE svg PUBLIC "-//W3C//DTD SVG 1.1//EN" "http://www.w3.org/Graphics/SVG/1.1/DTD/svg11.dtd">
<svg width="434pt" height="530pt" viewBox="0 0 434 530" version="1.1" xmlns="http://www.w3.org/2000/svg">
<g id="#fb3938ff">
<path fill="#fb3938" opacity="1.00" d=" M 0.00 0.00 L 332.99 0.00 C 332.93 8.25 333.79 16.48 333.49 24.73 C 329.22 22.59 325.05 20.27 320.91 17.91 C 320.13 19.00 319.35 20.10 318.58 21.19 C 323.36 24.34 328.42 27.01 333.30 29.98 C 332.45 31.61 331.59 33.23 330.74 34.86 C 325.72 32.22 320.84 29.29 315.86 26.56 C 315.09 27.70 314.32 28.83 313.55 29.97 C 318.39 32.99 323.45 35.68 328.22 38.82 C 325.92 42.83 323.70 46.88 321.57 50.97 C 324.01 52.45 326.46 53.91 328.92 55.36 C 331.35 51.28 333.77 47.20 336.21 43.14 C 341.11 45.90 345.93 48.83 350.97 51.35 C 351.84 50.42 352.71 49.49 353.59 48.56 C 348.80 44.98 343.33 42.49 338.40 39.13 C 339.27 37.60 340.15 36.07 341.02 34.54 C 346.18 37.18 351.12 40.20 356.14 43.08 C 356.84 41.97 357.54 40.86 358.25 39.75 C 354.15 36.92 349.85 34.40 345.54 31.93 C 354.76 25.91 364.95 21.60 374.29 15.77 C 371.98 14.36 369.78 12.48 367.04 12.04 C 363.61 12.80 360.76 15.02 357.84 16.84 C 352.10 20.61 346.29 24.29 340.11 27.30 C 339.80 18.19 340.82 9.11 340.97 0.00 L 434.00 0.00 L 434.00 44.07 C 418.15 63.49 399.17 80.24 378.77 94.73 C 343.84 119.40 303.21 135.80 261.03 142.73 C 260.44 133.31 257.56 123.81 251.57 116.39 C 243.70 106.10 230.80 100.40 217.99 100.04 C 204.63 100.09 191.04 106.06 183.01 116.93 C 177.27 124.27 174.57 133.57 173.95 142.77 C 125.74 135.34 79.68 114.90 41.55 84.53 C 26.48 72.47 12.41 59.14 0.00 44.35 L 0.00 0.00 M 112.11 38.14 C 113.32 48.43 115.02 58.67 116.07 68.98 C 107.44 64.91 98.89 60.66 90.15 56.82 C 86.35 55.10 83.19 59.09 80.82 61.53 C 90.87 65.76 101.19 69.41 111.04 74.09 C 107.34 77.12 102.90 79.34 99.79 83.05 C 100.31 84.17 100.98 85.21 101.61 86.27 C 106.38 83.02 110.96 79.48 115.62 76.06 C 116.38 77.63 118.30 79.07 117.97 80.87 C 114.32 84.79 109.50 87.37 105.23 90.54 C 106.04 91.78 106.86 93.01 107.71 94.22 C 112.46 91.10 116.81 87.41 121.56 84.29 C 124.25 88.02 126.90 91.78 129.90 95.27 C 132.30 93.80 134.67 92.26 137.00 90.68 C 134.39 86.69 131.36 82.99 128.78 78.99 C 133.18 75.39 137.88 72.19 142.46 68.84 C 141.65 67.72 140.85 66.60 140.09 65.46 C 135.27 68.53 130.87 72.21 125.99 75.21 C 124.92 73.80 123.84 72.39 122.76 70.98 C 127.19 67.40 131.89 64.19 136.49 60.84 C 135.70 59.68 134.93 58.52 134.16 57.34 C 130.09 60.06 126.19 63.03 122.16 65.81 C 120.39 54.95 120.71 43.87 118.94 33.03 C 116.57 34.60 114.29 36.31 112.11 38.14 Z" />
</g>
<g id="#f02b2aff">
<path fill="#f02b2a" opacity="1.00" d=" M 332.99 0.00 L 340.97 0.00 C 340.82 9.11 339.80 18.19 340.11 27.30 C 346.29 24.29 352.10 20.61 357.84 16.84 C 360.76 15.02 363.61 12.80 367.04 12.04 C 369.78 12.48 371.98 14.36 374.29 15.77 C 364.95 21.60 354.76 25.91 345.54 31.93 C 349.85 34.40 354.15 36.92 358.25 39.75 C 357.54 40.86 356.84 41.97 356.14 43.08 C 351.12 40.20 346.18 37.18 341.02 34.54 C 340.15 36.07 339.27 37.60 338.40 39.13 C 343.33 42.49 348.80 44.98 353.59 48.56 C 352.71 49.49 351.84 50.42 350.97 51.35 C 345.93 48.83 341.11 45.90 336.21 43.14 C 333.77 47.20 331.35 51.28 328.92 55.36 C 326.46 53.91 324.01 52.45 321.57 50.97 C 323.70 46.88 325.92 42.83 328.22 38.82 C 323.45 35.68 318.39 32.99 313.55 29.97 C 314.32 28.83 315.09 27.70 315.86 26.56 C 320.84 29.29 325.72 32.22 330.74 34.86 C 331.59 33.23 332.45 31.61 333.30 29.98 C 328.42 27.01 323.36 24.34 318.58 21.19 C 319.35 20.10 320.13 19.00 320.91 17.91 C 325.05 20.27 329.22 22.59 333.49 24.73 C 333.79 16.48 332.93 8.25 332.99 0.00 Z" />
<path fill="#f02b2a" opacity="1.00" d=" M 112.11 38.14 C 114.29 36.31 116.57 34.60 118.94 33.03 C 120.71 43.87 120.39 54.95 122.16 65.81 C 126.19 63.03 130.09 60.06 134.16 57.34 C 134.93 58.52 135.70 59.68 136.49 60.84 C 131.89 64.19 127.19 67.40 122.76 70.98 C 123.84 72.39 124.92 73.80 125.99 75.21 C 130.87 72.21 135.27 68.53 140.09 65.46 C 140.85 66.60 141.65 67.72 142.46 68.84 C 137.88 72.19 133.18 75.39 128.78 78.99 C 131.36 82.99 134.39 86.69 137.00 90.68 C 134.67 92.26 132.30 93.80 129.90 95.27 C 126.90 91.78 124.25 88.02 121.56 84.29 C 116.81 87.41 112.46 91.10 107.71 94.22 C 106.86 93.01 106.04 91.78 105.23 90.54 C 109.50 87.37 114.32 84.79 117.97 80.87 C 118.30 79.07 116.38 77.63 115.62 76.06 C 110.96 79.48 106.38 83.02 101.61 86.27 C 100.98 85.21 100.31 84.17 99.79 83.05 C 102.90 79.34 107.34 77.12 111.04 74.09 C 101.19 69.41 90.87 65.76 80.82 61.53 C 83.19 59.09 86.35 55.10 90.15 56.82 C 98.89 60.66 107.44 64.91 116.07 68.98 C 115.02 58.67 113.32 48.43 112.11 38.14 Z" />
</g>
<g id="#bc0003ff">
<path fill="#bc0003" opacity="1.00" d=" M 0.00 44.35 C 12.41 59.14 26.48 72.47 41.55 84.53 C 79.68 114.90 125.74 135.34 173.95 142.77 C 174.04 146.51 174.53 150.25 175.41 153.90 C 131.15 146.54 89.08 127.67 53.24 100.82 C 33.61 86.20 15.65 69.30 0.00 50.49 L 0.00 44.35 Z" />
<path fill="#bc0003" opacity="1.00" d=" M 378.77 94.73 C 399.17 80.24 418.15 63.49 434.00 44.07 L 434.00 50.59 C 418.26 69.30 400.37 86.19 380.78 100.82 C 345.20 127.49 303.49 146.17 259.62 153.79 C 260.50 150.17 260.95 146.45 261.03 142.73 C 303.21 135.80 343.84 119.40 378.77 94.73 Z" />
</g>
<g id="#d41111ff">
<path fill="#d41111" opacity="1.00" d=" M 0.00 50.49 C 15.65 69.30 33.61 86.20 53.24 100.82 C 35.64 114.88 17.49 128.27 0.00 142.47 L 0.00 50.49 Z" />
<path fill="#d41111" opacity="1.00" d=" M 380.78 100.82 C 400.37 86.19 418.26 69.30 434.00 50.59 L 434.00 142.37 C 416.42 128.32 398.37 114.85 380.78 100.82 Z" />
</g>
<g id="#fded4dff">
<path fill="#fded4d" opacity="1.00" d=" M 183.01 116.93 C 191.04 106.06 204.63 100.09 217.99 100.04 C 230.80 100.40 243.70 106.10 251.57 116.39 C 257.56 123.81 260.44 133.31 261.03 142.73 C 260.95 146.45 260.50 150.17 259.62 153.79 C 257.15 164.54 250.45 174.29 241.04 180.10 C 230.45 186.68 216.98 188.86 205.01 185.01 C 190.39 181.10 178.68 168.64 175.41 153.90 C 174.53 150.25 174.04 146.51 173.95 142.77 C 174.57 133.57 177.27 124.27 183.01 116.93 M 212.32 110.40 C 204.66 111.57 197.49 115.53 192.40 121.37 C 184.31 130.25 181.84 143.69 186.01 154.92 C 190.51 167.68 203.36 177.00 216.93 176.97 C 229.09 177.38 240.95 170.36 246.79 159.76 C 251.48 151.43 252.28 141.04 248.99 132.07 C 243.90 117.37 227.69 107.69 212.32 110.40 Z" />
</g>
<g id="#fd3331ff">
<path fill="#fd3331" opacity="1.00" d=" M 0.00 142.47 C 17.49 128.27 35.64 114.88 53.24 100.82 C 89.08 127.67 131.15 146.54 175.41 153.90 C 178.68 168.64 190.39 181.10 205.01 185.01 C 216.98 188.86 230.45 186.68 241.04 180.10 C 250.45 174.29 257.15 164.54 259.62 153.79 C 303.49 146.17 345.20 127.49 380.78 100.82 C 398.37 114.85 416.42 128.32 434.00 142.37 L 434.00 530.00 L 364.15 530.00 C 353.54 527.61 342.66 526.89 331.91 525.36 C 290.80 520.69 249.46 517.12 208.05 517.60 C 166.77 518.41 125.61 522.27 84.67 527.53 C 79.83 528.00 75.07 528.97 70.32 530.00 L 0.00 530.00 L 0.00 142.47 Z" />
</g>
<g id="#ffaa00ff">
<path fill="#ffaa00" opacity="1.00" d=" M 212.32 110.40 C 227.69 107.69 243.90 117.37 248.99 132.07 C 252.28 141.04 251.48 151.43 246.79 159.76 C 240.95 170.36 229.09 177.38 216.93 176.97 C 203.36 177.00 190.51 167.68 186.01 154.92 C 181.84 143.69 184.31 130.25 192.40 121.37 C 197.49 115.53 204.66 111.57 212.32 110.40 M 199.49 122.69 C 203.63 129.20 208.03 135.54 212.26 141.99 C 208.73 142.00 205.19 142.00 201.66 142.01 C 201.67 143.44 201.68 144.87 201.68 146.31 C 205.82 146.35 209.95 146.34 214.08 146.28 C 214.14 148.25 214.20 150.23 214.26 152.20 C 210.11 152.23 205.97 152.22 201.82 152.18 C 201.73 153.60 201.64 155.03 201.56 156.45 C 205.77 156.54 209.99 156.56 214.21 156.56 C 214.21 159.36 214.22 162.17 214.22 164.99 C 216.48 164.99 218.73 165.00 220.99 165.01 C 220.99 162.19 221.00 159.37 221.00 156.55 C 225.14 156.55 229.27 156.54 233.41 156.48 C 233.33 155.04 233.26 153.61 233.19 152.18 C 229.12 152.22 225.06 152.23 220.99 152.21 C 221.00 150.24 221.02 148.28 221.05 146.31 C 225.13 146.34 229.22 146.34 233.31 146.31 C 233.31 144.88 233.33 143.45 233.34 142.02 C 229.86 142.01 226.37 141.99 222.89 141.97 C 227.20 135.50 231.78 129.22 235.98 122.68 C 233.60 122.66 231.22 122.65 228.84 122.63 C 225.01 128.56 221.53 134.71 217.67 140.63 C 214.28 134.56 210.59 128.66 207.04 122.68 C 204.52 122.68 202.00 122.68 199.49 122.69 Z" />
</g>
<g id="#fdef55ff">
<path fill="#fdef55" opacity="1.00" d=" M 199.49 122.69 C 202.00 122.68 204.52 122.68 207.04 122.68 C 210.59 128.66 214.28 134.56 217.67 140.63 C 221.53 134.71 225.01 128.56 228.84 122.63 C 231.22 122.65 233.60 122.66 235.98 122.68 C 231.78 129.22 227.20 135.50 222.89 141.97 C 226.37 141.99 229.86 142.01 233.34 142.02 C 233.33 143.45 233.31 144.88 233.31 146.31 C 229.22 146.34 225.13 146.34 221.05 146.31 C 221.02 148.28 221.00 150.24 220.99 152.21 C 225.06 152.23 229.12 152.22 233.19 152.18 C 233.26 153.61 233.33 155.04 233.41 156.48 C 229.27 156.54 225.14 156.55 221.00 156.55 C 221.00 159.37 220.99 162.19 220.99 165.01 C 218.73 165.00 216.48 164.99 214.22 164.99 C 214.22 162.17 214.21 159.36 214.21 156.56 C 209.99 156.56 205.77 156.54 201.56 156.45 C 201.64 155.03 201.73 153.60 201.82 152.18 C 205.97 152.22 210.11 152.23 214.26 152.20 C 214.20 150.23 214.14 148.25 214.08 146.28 C 209.95 146.34 205.82 146.35 201.68 146.31 C 201.68 144.87 201.67 143.44 201.66 142.01 C 205.19 142.00 208.73 142.00 212.26 141.99 C 208.03 135.54 203.63 129.20 199.49 122.69 Z" />
</g>
<g id="#d41011ff">
<path fill="#d41011" opacity="1.00" d=" M 84.67 527.53 C 125.61 522.27 166.77 518.41 208.05 517.60 C 249.46 517.12 290.80 520.69 331.91 525.36 C 342.66 526.89 353.54 527.61 364.15 530.00 L 70.32 530.00 C 75.07 528.97 79.83 528.00 84.67 527.53 Z" />
</g>
</svg>
